<svg width="170" height="21" viewBox="0 0 170 21" fill="none" xmlns="http://www.w3.org/2000/svg">
<path d="M15.5098 10.8095C15.5098 9.10386 14.9821 7.65221 13.9266 6.4546C12.8712 5.25699 11.5694 4.65818 10.0214 4.65818C8.49099 4.65818 7.19805 5.25699 6.14258 6.4546C5.08712 7.65221 4.55939 9.10386 4.55939 10.8095C4.55939 12.4971 5.08712 13.9397 6.14258 15.1373C7.19805 16.3167 8.49099 16.9065 10.0214 16.9065C11.5694 16.9065 12.8712 16.3167 13.9266 15.1373C14.9821 13.9397 15.5098 12.4971 15.5098 10.8095ZM16.9083 17.8047C15.0437 19.6737 12.748 20.6082 10.0214 20.6082C7.2948 20.6082 4.99916 19.6737 3.13451 17.8047C1.26985 15.9175 0.337524 13.5767 0.337524 10.7823C0.337524 7.9879 1.26985 5.65619 3.13451 3.7872C4.99916 1.90006 7.2948 0.956485 10.0214 0.956485C12.748 0.956485 15.0437 1.90006 16.9083 3.7872C18.773 5.65619 19.7053 7.9879 19.7053 10.7823C19.7053 13.5767 18.773 15.9175 16.9083 17.8047Z" fill="#333333"/>
<path d="M29.6048 17.0153C30.9242 17.0153 32.1116 16.3349 33.167 14.974L35.5154 17.6958C33.686 19.6555 31.707 20.6354 29.5784 20.6354C27.4499 20.6354 25.6468 19.9458 24.1692 18.5668C22.7091 17.1696 21.9791 15.355 21.9791 13.1231C21.9791 10.8731 22.7179 9.04942 24.1956 7.65221C25.6908 6.23685 27.4587 5.52917 29.4993 5.52917C30.5196 5.52917 31.5487 5.74692 32.5865 6.18242C33.642 6.61791 34.5655 7.26208 35.3571 8.11492L33.299 10.8912C32.8416 10.3287 32.2787 9.89319 31.6102 9.58471C30.9593 9.27624 30.3085 9.122 29.6576 9.122C28.6197 9.122 27.7226 9.47584 26.9662 10.1835C26.2273 10.8731 25.8579 11.8438 25.8579 13.0959C25.8579 14.3298 26.2273 15.2915 26.9662 15.981C27.7226 16.6706 28.6021 17.0153 29.6048 17.0153Z" fill="#333333"/>
<path d="M42.8781 8.71373V15.2734C42.8781 15.8359 43.0189 16.2804 43.3003 16.6071C43.5818 16.9155 43.916 17.0698 44.303 17.0698C45.0418 17.0698 45.6663 16.725 46.1765 16.0355L47.6541 18.8934C46.4227 20.0547 45.121 20.6354 43.7489 20.6354C42.3944 20.6354 41.2422 20.1727 40.2922 19.2472C39.3599 18.3218 38.8938 17.0607 38.8938 15.4639V8.71373H37.2314V5.77414H38.8938V1.39198H42.8781V5.77414H46.3084V8.71373H42.8781Z" fill="#333333"/>
<path d="M52.7882 13.0959C52.7882 14.2935 53.1136 15.2734 53.7645 16.0355C54.4329 16.7794 55.2773 17.1514 56.2976 17.1514C57.3355 17.1514 58.1798 16.7794 58.8307 16.0355C59.4992 15.2734 59.8334 14.2935 59.8334 13.0959C59.8334 11.8983 59.4992 10.9184 58.8307 10.1563C58.1798 9.39418 57.3355 9.01313 56.2976 9.01313C55.2773 9.01313 54.4329 9.39418 53.7645 10.1563C53.1136 10.9184 52.7882 11.8983 52.7882 13.0959ZM63.8178 13.0959C63.8178 15.2189 63.1053 17.0063 61.6805 18.4579C60.2556 19.9096 58.4613 20.6354 56.2976 20.6354C54.1515 20.6354 52.366 19.9096 50.9411 18.4579C49.5162 17.0063 48.8038 15.2189 48.8038 13.0959C48.8038 10.9729 49.5162 9.18551 50.9411 7.73386C52.366 6.26407 54.1515 5.52917 56.2976 5.52917C58.4613 5.52917 60.2556 6.26407 61.6805 7.73386C63.1053 9.18551 63.8178 10.9729 63.8178 13.0959Z" fill="#333333"/>
<path d="M74.9375 5.52917C76.6614 5.52917 78.1654 6.22778 79.4496 7.62499C80.7337 9.00406 81.3758 10.7823 81.3758 12.9598C81.3758 15.1373 80.7161 16.9609 79.3968 18.4307C78.0775 19.9005 76.5735 20.6354 74.8847 20.6354C73.2136 20.6354 71.8239 19.9186 70.7156 18.4851V20.4176H66.7576V0.221588H70.7156V7.40724C71.8063 6.1552 73.2135 5.52917 74.9375 5.52917ZM70.6628 13.1231C70.6628 14.3026 70.9795 15.2734 71.6128 16.0355C72.2636 16.7794 73.0464 17.1514 73.9612 17.1514C74.8759 17.1514 75.6763 16.7794 76.3624 16.0355C77.0484 15.2734 77.3914 14.3026 77.3914 13.1231C77.3914 11.9436 77.0572 10.9547 76.3887 10.1563C75.7203 9.35789 74.9199 8.95869 73.9876 8.95869C73.0552 8.95869 72.2636 9.35789 71.6128 10.1563C70.9795 10.9366 70.6628 11.9255 70.6628 13.1231Z" fill="#333333"/>
<path d="M96.6277 18.2946C95.0269 19.8551 93.1447 20.6354 90.981 20.6354C88.8348 20.6354 87.0582 19.9549 85.6509 18.594C84.2436 17.2149 83.5399 15.3732 83.5399 13.0687C83.5399 10.7642 84.2524 8.93147 85.6773 7.57055C87.1197 6.20963 88.8173 5.52917 90.7699 5.52917C92.7225 5.52917 94.376 6.13705 95.7306 7.35281C97.1027 8.56856 97.7887 10.238 97.7887 12.361V14.5385H87.4452C87.5683 15.3369 87.9729 15.9901 88.6589 16.4982C89.345 17.0063 90.119 17.2603 90.981 17.2603C92.3707 17.2603 93.5141 16.7794 94.4112 15.8177L96.6277 18.2946ZM93.7779 11.6261C93.69 10.7551 93.3734 10.0837 92.828 9.61193C92.2827 9.14015 91.6142 8.90425 90.8226 8.90425C90.0486 8.90425 89.3362 9.14922 88.6853 9.63915C88.0345 10.1291 87.6562 10.7914 87.5507 11.6261H93.7779Z" fill="#333333"/>
<path d="M108.11 9.36697C106.932 9.36697 106.052 9.80246 105.472 10.6735C104.891 11.5263 104.601 12.6604 104.601 14.0757V20.4176H100.643V5.77414H104.601V7.70665C105.111 7.10784 105.744 6.59976 106.501 6.18242C107.275 5.76507 108.057 5.54732 108.849 5.52917L108.875 9.36697H108.11Z" fill="#333333"/>
<path d="M117.639 12.3338L120.911 1.39198H125.212L128.458 12.3338L132.126 1.39198H136.585L130.147 20.4176H127.086L123.049 7.1895L119.038 20.4176H115.977L109.539 1.39198H113.998L117.639 12.3338Z" fill="#333333"/>
<path d="M150.664 18.2946C149.063 19.8551 147.181 20.6354 145.017 20.6354C142.871 20.6354 141.094 19.9549 139.687 18.594C138.279 17.2149 137.576 15.3732 137.576 13.0687C137.576 10.7642 138.288 8.93147 139.713 7.57055C141.156 6.20963 142.853 5.52917 144.806 5.52917C146.758 5.52917 148.412 6.13705 149.766 7.35281C151.139 8.56856 151.825 10.238 151.825 12.361V14.5385H141.481C141.604 15.3369 142.009 15.9901 142.695 16.4982C143.381 17.0063 144.155 17.2603 145.017 17.2603C146.407 17.2603 147.55 16.7794 148.447 15.8177L150.664 18.2946ZM147.814 11.6261C147.726 10.7551 147.409 10.0837 146.864 9.61193C146.319 9.14015 145.65 8.90425 144.859 8.90425C144.085 8.90425 143.372 9.14922 142.721 9.63915C142.07 10.1291 141.692 10.7914 141.587 11.6261H147.814Z" fill="#333333"/>
<path d="M162.859 5.52917C164.582 5.52917 166.087 6.22778 167.371 7.62499C168.655 9.00406 169.297 10.7823 169.297 12.9598C169.297 15.1373 168.637 16.9609 167.318 18.4307C165.999 19.9005 164.495 20.6354 162.806 20.6354C161.135 20.6354 159.745 19.9186 158.637 18.4851V20.4176H154.679V0.221588H158.637V7.40724C159.727 6.1552 161.135 5.52917 162.859 5.52917ZM158.584 13.1231C158.584 14.3026 158.901 15.2734 159.534 16.0355C160.185 16.7794 160.968 17.1514 161.882 17.1514C162.797 17.1514 163.597 16.7794 164.283 16.0355C164.969 15.2734 165.313 14.3026 165.313 13.1231C165.313 11.9436 164.978 10.9547 164.31 10.1563C163.641 9.35789 162.841 8.95869 161.909 8.95869C160.976 8.95869 160.185 9.35789 159.534 10.1563C158.901 10.9366 158.584 11.9255 158.584 13.1231Z" fill="#333333"/>
</svg>
